# xmcd
#
# Track frame offsets:
#	150
#	29250
#	50487
#	67015
#	86682
#	108277
#	126180
#	142355
#	161150
#
# Disc length: 2379 seconds
#
# Revision: 1
# Processed by: cddbd v1.5.2PL0 Copyright (c) Steve Scherf et al.
# Submitted via: audiograbber 1.83.01
#
DISCID=84094909
DTITLE=Billie And Dede Pierce - New Orleans - The Living Legends
DYEAR=1961
DGENRE=Blues
TTITLE0=St. Louis Blues
TTITLE1=Goodbye Daddy Blues
TTITLE2=Careless Love
TTITLE3=Brickhouse Blues
TTITLE4=Algiers Hoodoo Blues
TTITLE5=Slow Tonk Blues
TTITLE6=Guilf Coast Blues
TTITLE7=Nobody Knows You When You're Down And Out
TTITLE8=Love Song From The Nile
EXTD=Vocal Blues And Cornet In The Classic Tradition
EXTT0=
EXTT1=
EXTT2=
EXTT3=
EXTT4=
EXTT5=
EXTT6=
EXTT7=
EXTT8=
PLAYORDER=
